name ./resultDataOpenSim/trcMotMarkerGrf/sub09/grf-01-01.mot
datacolumns 19
datarows 12
range 1.46400000 1.50800000
endheader

                time	     ground_force_vx	     ground_force_vy	     ground_force_vz	     ground_force_px	     ground_force_py	     ground_force_pz	   l_ground_force_vx	   l_ground_force_vy	   l_ground_force_vz	   l_ground_force_px	   l_ground_force_py	   l_ground_force_pz	     ground_torque_x	     ground_torque_y	     ground_torque_z	   l_ground_torque_x	   l_ground_torque_y	   l_ground_torque_z	
          1.46400000	        -32.88546999	        424.84518657	        -24.42919493	          1.00081715	          0.00000000	          0.13530281	          0.00000000	          0.00000000	          0.00000000	          0.00000000	          0.00000000	          0.00000000	          0.00000000	          1.59958893	          0.00000000	          0.00000000	          0.00000000	          0.00000000	
          1.46800000	        -28.51934098	        422.50206399	        -22.20530388	          1.00075686	          0.00000000	          0.13500603	          0.00000000	          0.00000000	          0.00000000	          0.00000000	          0.00000000	          0.00000000	          0.00000000	          1.65834319	          0.00000000	          0.00000000	          0.00000000	          0.00000000	
          1.47200000	        -24.93377188	        420.71277385	        -19.90613924	          1.00079448	          0.00000000	          0.13466265	          0.00000000	          0.00000000	          0.00000000	          0.00000000	          0.00000000	          0.00000000	          0.00000000	          1.75815767	          0.00000000	          0.00000000	          0.00000000	          0.00000000	
          1.47600000	        -22.83643193	        419.54750252	        -17.92966428	          1.00105618	          0.00000000	          0.13426789	          0.00000000	          0.00000000	          0.00000000	          0.00000000	          0.00000000	          0.00000000	          0.00000000	          1.91950319	          0.00000000	          0.00000000	          0.00000000	          0.00000000	
          1.48000000	        -22.51292063	        419.01626287	        -16.60916102	          1.00158677	          0.00000000	          0.13383088	          0.00000000	          0.00000000	          0.00000000	          0.00000000	          0.00000000	          0.00000000	          0.00000000	          2.14389403	          0.00000000	          0.00000000	          0.00000000	          0.00000000	
          1.48400000	        -23.74468580	        419.07149815	        -16.16615939	          1.00234606	          0.00000000	          0.13337906	          0.00000000	          0.00000000	          0.00000000	          0.00000000	          0.00000000	          0.00000000	          0.00000000	          2.41026219	          0.00000000	          0.00000000	          0.00000000	          0.00000000	
          1.48800000	        -25.87785462	        419.64713845	        -16.68036280	          1.00322687	          0.00000000	          0.13294457	          0.00000000	          0.00000000	          0.00000000	          0.00000000	          0.00000000	          0.00000000	          0.00000000	          2.68021379	          0.00000000	          0.00000000	          0.00000000	          0.00000000	
          1.49200000	        -28.01302161	        420.69754926	        -18.07383906	          1.00409418	          0.00000000	          0.13255582	          0.00000000	          0.00000000	          0.00000000	          0.00000000	          0.00000000	          0.00000000	          0.00000000	          2.91085228	          0.00000000	          0.00000000	          0.00000000	          0.00000000	
          1.49600000	        -29.25600374	        422.19527359	        -20.11678092	          1.00479809	          0.00000000	          0.13221793	          0.00000000	          0.00000000	          0.00000000	          0.00000000	          0.00000000	          0.00000000	          0.00000000	          3.06975913	          0.00000000	          0.00000000	          0.00000000	          0.00000000	
          1.50000000	        -28.96441683	        424.10201663	        -22.47013885	          1.00522865	          0.00000000	          0.13192452	          0.00000000	          0.00000000	          0.00000000	          0.00000000	          0.00000000	          0.00000000	          0.00000000	          3.14562951	          0.00000000	          0.00000000	          0.00000000	          0.00000000	
          1.50400000	        -26.91684591	        426.37258877	        -24.76403042	          1.00531817	          0.00000000	          0.13167052	          0.00000000	          0.00000000	          0.00000000	          0.00000000	          0.00000000	          0.00000000	          0.00000000	          3.15068328	          0.00000000	          0.00000000	          0.00000000	          0.00000000	
          1.50800000	        -23.35197011	        428.99160813	        -26.68561014	          1.00511186	          0.00000000	          0.13144106	          0.00000000	          0.00000000	          0.00000000	          0.00000000	          0.00000000	          0.00000000	          0.00000000	          3.11547295	          0.00000000	          0.00000000	          0.00000000	          0.00000000	
